#!OML:ASF X:\für Bonn\!DataBase\2005_08_10_Bjorn_Final\c3d\bjorn.ASF
:FULLY-SPECIFIED
:DEGREES
48
root 0.501347 19.3444 4.21356 -174.893 2.28127 177.534
lowerback -2.26147 0.350565 0.293308
upperback 10.9741 1.53534 0.710331
thorax 13.1307 1.18187 0.927019
lowerneck -8.1505 4.98831 3.92522
upperneck 4.60451 6.57218 -4.95206
head 3.2764 3.14726 -1.96201
rclavicle -2.42517e-014 -3.49861e-014
rhumerus -1372.07 15.8957 1409.47
rradius 23.0493
rwrist 28.6907
rhand -9.77518 1.30246
rfingers 7.12502
rthumb 16.2001 -28.0406
lclavicle -2.42517e-014 -3.49861e-014
lhumerus -1546.14 187.179 -1550.7
lradius 12.8649
lwrist -56.1089
lhand -21.9565 0.500687
lfingers 7.12502
lthumb 4.45078 30.4339
rfemur -19.5164 -7.92656 12.7675
rtibia 31.0274
rfoot -14.0999 7.37634
rtoes -16.8466
lfemur -14.997 9.34485 -19.8956
ltibia 27.2709
lfoot -10.9926 -4.36572
ltoes -1.472
49
root 0.511658 19.3293 4.11888 -175.491 2.31107 177.626
lowerback -3.05274 0.438881 0.323839
upperback 10.6569 1.55368 0.644309
thorax 13.2528 1.15647 0.846563
lowerneck -7.49885 4.4724 3.83068
upperneck 6.38915 5.88802 -3.92558
head 3.68774 2.84843 -1.64902
rclavicle -1.11319e-014 -1.59028e-014
rhumerus -1371.95 15.1997 1410.01
rradius 23.3254
rwrist 28.8811
rhand -9.31303 1.04154
rfingers 7.12502
rthumb 16.6451 -28.2647
lclavicle -1.11319e-014 -1.59028e-014
lhumerus -1545.49 187.693 -1555.73
lradius 14.1597
lwrist -50.9163
lhand -21.9259 1.45978
lfingers 7.12502
lthumb 4.48034 31.3924
rfemur -18.563 -7.97962 12.7659
rtibia 31.1264
rfoot -14.4604 7.64913
rtoes -16.7144
lfemur -13.9564 9.09603 -19.612
ltibia 27.2656
lfoot -11.4283 -4.12604
ltoes -2.01223
50
root 0.521274 19.3134 4.02205 -176.061 2.32796 177.739
lowerback -3.86242 0.521528 0.362441
upperback 10.3043 1.55742 0.601448
thorax 13.3451 1.12196 0.783905
lowerneck -6.68585 4.00052 3.7321
upperneck 8.12816 5.2064 -2.97539
head 4.07107 2.53817 -1.36277
rclavicle -9.93923e-016 2.8625e-014
rhumerus -1371.89 14.537 1410.6
rradius 23.6714
rwrist 28.6907
rhand -8.66996 0.606527
rfingers 7.12502
rthumb 17.2641 -28.6466
lclavicle -9.93923e-016 2.8625e-014
lhumerus -1544.91 187.77 -1558.89
lradius 15.0048
lwrist -47.4511
lhand -21.9124 2.15308
lfingers 7.12502
lthumb 4.49332 32.0854
rfemur -17.62 -8.01808 12.7844
rtibia 31.2064
rfoot -14.8345 7.89856
rtoes -16.6037
lfemur -12.9349 8.82642 -19.3149
ltibia 27.2331
lfoot -11.8193 -3.9047
ltoes -2.25813
51
root 0.532954 19.2978 3.9234 -176.625 2.34945 177.813
lowerback -4.71949 0.587979 0.339642
upperback 9.98101 1.55669 0.541135
thorax 13.5025 1.08304 0.738735
lowerneck -5.84268 3.58388 3.55134
upperneck 9.79529 4.53452 -1.96506
head 4.43457 2.22118 -1.0393
rclavicle 2.18663e-015 3.49861e-014
rhumerus -1371.88 13.6684 1410.79
rradius 23.8446
rwrist 28.7659
rhand -7.95066 0.620576
rfingers 7.12502
rthumb 17.9563 -28.5705
lclavicle 2.18663e-015 3.49861e-014
lhumerus -1544.35 187.671 -1562.09
lradius 15.911
lwrist -43.9575
lhand -21.769 2.69217
lfingers 7.12502
lthumb 4.63185 32.6215
rfemur -16.6654 -8.05391 12.7605
rtibia 31.2625
rfoot -15.1865 8.14016
rtoes -16.4424
lfemur -11.8962 8.55551 -19.0718
ltibia 27.1763
lfoot -12.2304 -3.68328
ltoes -2.7032
52
root 0.543134 19.2801 3.82077 -177.212 2.3923 177.928
lowerback -5.59276 0.642286 0.353416
upperback 9.68161 1.54215 0.501519
thorax 13.6999 1.0431 0.695105
lowerneck -4.96142 3.22273 3.42884
upperneck 11.4446 3.87574 -1.07048
head 4.80827 1.89435 -0.762257
rclavicle -5.76476e-015 1.66979e-014
rhumerus -1371.87 12.7042 1410.9
rradius 23.8901
rwrist 28.8482
rhand -7.51096 0.906392
rfingers 7.12502
rthumb 18.3793 -28.2453
lclavicle -5.76476e-015 1.66979e-014
lhumerus -1543.89 187.312 -1564.69
lradius 16.6768
lwrist -41.3893
lhand -21.9065 2.93252
lfingers 7.12502
lthumb 4.49907 32.8647
rfemur -15.6644 -8.13526 12.769
rtibia 31.2955
rfoot -15.5412 8.46119
rtoes -16.4133
lfemur -10.7974 8.29422 -18.7897
ltibia 27.0951
lfoot -12.6597 -3.43382
ltoes -3.19382
53
root 0.5549 19.2647 3.71644 -177.767 2.42231 178.043
lowerback -6.50868 0.689138 0.325919
upperback 9.39123 1.52554 0.480807
thorax 13.9342 0.998232 0.696279
lowerneck -4.00921 2.90145 3.33259
upperneck 13.4289 3.21837 -0.278039
head 4.74899 1.54976 -0.476336
rclavicle -3.97569e-015 2.78299e-015
rhumerus -1371.83 11.6584 1411.09
rradius 23.8784
rwrist 28.8634
rhand -7.17685 1.18635
rfingers 7.12502
rthumb 18.7007 -27.9347
lclavicle -3.97569e-015 2.78299e-015
lhumerus -1543.43 186.796 -1567.09
lradius 17.3918
lwrist -39.1074
lhand -21.9801 3.11754
lfingers 7.12502
lthumb 4.42798 33.0513
rfemur -14.6699 -8.2136 12.7808
rtibia 31.3027
rfoot -15.8931 8.76001
rtoes -16.2871
lfemur -9.72752 8.04389 -18.5156
ltibia 26.9919
lfoot -13.0604 -3.20262
ltoes -3.54377
54
root 0.566404 19.2468 3.60975 -178.299 2.48144 178.135
lowerback -7.50034 0.713405 0.235279
upperback 9.14525 1.49365 0.48898
thorax 14.2683 0.940547 0.76541
lowerneck -3.12491 2.64621 3.22899
upperneck 15.0333 2.5885 0.48702
head 5.07305 1.21114 -0.267374
rclavicle 5.1684e-015 -3.18055e-015
rhumerus -1371.68 10.5513 1411.52
rradius 23.9126
rwrist 28.8598
rhand -6.93741 1.32393
rfingers 7.12502
rthumb 18.931 -27.7748
lclavicle 5.1684e-015 -3.18055e-015
lhumerus -1542.96 186.039 -1569.24
lradius 18.0708
lwrist -37.0066
lhand -21.8471 3.10343
lfingers 7.12502
lthumb 4.55645 33.0344
rfemur -13.6931 -8.40874 12.7539
rtibia 31.287
rfoot -16.1771 9.1896
rtoes -16.0512
lfemur -8.67197 7.87943 -18.2752
ltibia 26.8807
lfoot -13.4507 -3.05409
ltoes -3.98119
55
root 0.578451 19.2298 3.50282 -178.81 2.50372 178.225
lowerback -8.51373 0.721165 0.169492
upperback 8.91394 1.44676 0.466979
thorax 14.6366 0.882441 0.784667
lowerneck -2.19025 2.43661 3.22313
upperneck 16.5457 1.96522 1.19308
head 5.37041 0.867411 -0.0925342
rclavicle 1.3418e-014 8.74653e-015
rhumerus -1371.53 9.37044 1411.99
rradius 23.9268
rwrist 29.0139
rhand -6.92792 1.36068
rfingers 7.12502
rthumb 18.9401 -27.7372
lclavicle 1.3418e-014 8.74653e-015
lhumerus -1542.5 185.084 -1571.32
lradius 18.727
lwrist -35.1734
lhand -21.4638 2.72002
lfingers 7.12502
lthumb 4.92649 32.6427
rfemur -12.7315 -8.57775 12.7276
rtibia 31.2628
rfoot -16.4915 9.55646
rtoes -16.0088
lfemur -7.63212 7.64488 -18.0464
ltibia 26.7556
lfoot -13.8219 -2.84885
ltoes -4.13624
56
root 0.590826 19.2122 3.39414 -179.298 2.56338 178.317
lowerback -9.59196 0.726258 0.0763052
upperback 8.71749 1.40582 0.474728
thorax 15.0882 0.824142 0.85564
lowerneck -1.02861 2.28005 3.24455
upperneck 17.7153 1.40717 1.83387
head 5.53073 0.546401 0.0601883
rclavicle 1.47101e-014 -3.97569e-016
rhumerus -1371.35 8.16541 1412.73
rradius 23.9553
rwrist 28.9557
rhand -7.017 1.28281
rfingers 7.12502
rthumb 18.8545 -27.8234
lclavicle 1.47101e-014 -3.97569e-016
lhumerus -1542.04 183.892 -1572.94
lradius 19.279
lwrist -33.9957
lhand -20.8235 2.10893
lfingers 7.12502
lthumb 5.54473 32.0164
rfemur -11.7826 -8.68664 12.6999
rtibia 31.2272
rfoot -16.7865 9.9053
rtoes -15.7512
lfemur -6.62234 7.52131 -17.8225
ltibia 26.6381
lfoot -14.207 -2.6823
ltoes -4.72457
57
root 0.603189 19.1927 3.28658 -179.75 2.63576 178.408
lowerback -10.6739 0.710924 -0.026703
upperback 8.50365 1.33779 0.509868
thorax 15.5218 0.750397 0.955039
lowerneck 0.321018 2.17192 3.26602
upperneck 18.7183 0.912339 2.35354
head 5.61353 0.236954 0.179655
rclavicle 6.95746e-016 3.97569e-015
rhumerus -1371.18 7.01693 1413.74
rradius 24.042
rwrist 28.5089
rhand -7.25351 1.07134
rfingers 7.12502
rthumb 18.627 -28.0568
lclavicle 6.95746e-016 3.97569e-015
lhumerus -1541.64 182.524 -1574.47
lradius 19.7413
lwrist -33.089
lhand -20.1017 1.62544
lfingers 7.12502
lthumb 6.2416 31.5135
rfemur -10.8842 -8.85329 12.6665
rtibia 31.1912
rfoot -17.0949 10.3129
rtoes -15.7054
lfemur -5.65175 7.36732 -17.6075
ltibia 26.5256
lfoot -14.5814 -2.54967
ltoes -4.78425
58
root 0.614976 19.1727 3.17919 -180.177 2.67374 178.52
lowerback -11.7667 0.684798 -0.0800844
upperback 8.30852 1.25498 0.536592
thorax 15.9879 0.677898 1.01311
lowerneck 1.71699 2.08128 3.32669
upperneck 19.567 0.43598 2.82291
head 5.64587 -0.0714048 0.281287
rclavicle -6.95746e-016 3.18055e-015
rhumerus -1371.01 5.79138 1414.76
rradius 24.1044
rwrist 27.8658
rhand -7.54161 0.750655
rfingers 7.12502
rthumb 18.3499 -28.4038
lclavicle -6.95746e-016 3.18055e-015
lhumerus -1541.21 181.037 -1575.58
lradius 20.1031
lwrist -32.8565
lhand -19.3764 1.23169
lfingers 7.12502
lthumb 6.94182 31.0979
rfemur -10.0047 -9.06044 12.6484
rtibia 31.1581
rfoot -17.3602 10.7079
rtoes -15.4564
lfemur -4.72922 7.23038 -17.3795
ltibia 26.4281
lfoot -14.9556 -2.3983
ltoes -5.19297
